<svg xmlns="http://www.w3.org/2000/svg" xmlns:xlink="http://www.w3.org/1999/xlink" width="500" zoomAndPan="magnify" viewBox="0 0 375 374.999991" height="500" preserveAspectRatio="xMidYMid meet" version="1.0"><defs><g/><clipPath id="3582593822"><path d="M 23.65625 66 L 351.40625 66 L 351.40625 310.46875 L 23.65625 310.46875 Z M 23.65625 66 " clip-rule="nonzero"/></clipPath></defs><rect x="-37.5" width="450" fill="#ffffff" y="-37.499999" height="449.999989" fill-opacity="1"/><rect x="-37.5" width="450" fill="#ffffff" y="-37.499999" height="449.999989" fill-opacity="1"/><path fill="#ffffff" d="M 349.890625 309 L 53.34375 309 L 57.863281 284.359375 L 26.40625 284.359375 C 78.703125 217.378906 93.648438 90.109375 93.648438 90.109375 L 94.300781 84.933594 L 332.589844 84.933594 Z M 349.890625 309 " fill-opacity="1" fill-rule="nonzero"/><path fill="#ffffff" d="M 341.308594 83.753906 L 333.441406 118.421875 C 332.523438 122.289062 329.3125 125.039062 325.644531 125.039062 L 106.753906 125.039062 C 101.773438 125.039062 97.972656 120.191406 98.824219 114.882812 L 104.328125 80.214844 C 104.984375 76.019531 108.328125 73.003906 112.257812 73.003906 L 333.507812 73.003906 C 338.6875 73.003906 342.550781 78.3125 341.308594 83.753906 Z M 341.308594 83.753906 " fill-opacity="1" fill-rule="nonzero"/><g clip-path="url(#3582593822)"><path fill="#000000" d="M 246.542969 211.613281 L 274.132812 211.613281 L 274.132812 208.925781 L 247.394531 208.925781 L 259.125 173.078125 L 287.960938 173.078125 L 287.960938 170.390625 L 259.976562 170.390625 L 268.824219 143.257812 L 266.269531 142.40625 L 257.09375 170.390625 L 216.199219 170.390625 L 225.046875 143.257812 L 222.492188 142.40625 L 213.316406 170.390625 L 170.257812 170.390625 L 179.105469 143.257812 L 176.550781 142.40625 L 167.375 170.390625 L 129.296875 170.390625 L 138.144531 143.257812 L 135.589844 142.40625 L 126.414062 170.390625 L 99.414062 170.390625 L 99.414062 173.078125 L 125.496094 173.078125 L 113.765625 208.925781 L 85.71875 208.925781 L 85.71875 211.613281 L 113.046875 211.613281 L 101.511719 246.9375 L 70.511719 246.9375 L 70.511719 249.625 L 100.59375 249.625 L 94.105469 269.546875 L 96.660156 270.398438 L 103.476562 249.691406 L 141.554688 249.691406 L 135.066406 269.613281 L 137.621094 270.464844 L 144.371094 249.753906 L 187.496094 249.753906 L 181.007812 269.679688 L 183.5625 270.53125 L 190.3125 249.820312 L 231.207031 249.820312 L 224.71875 269.742188 L 227.273438 270.59375 L 234.089844 249.886719 L 258.929688 249.886719 L 258.929688 247.199219 L 234.941406 247.199219 Z M 215.414062 173.011719 L 256.308594 173.011719 L 244.574219 208.859375 L 203.683594 208.859375 Z M 169.472656 173.011719 L 212.527344 173.011719 L 200.796875 208.859375 L 157.742188 208.859375 Z M 128.511719 173.011719 L 166.589844 173.011719 L 154.855469 208.859375 L 116.78125 208.859375 Z M 142.472656 246.9375 L 104.394531 246.9375 L 115.929688 211.613281 L 154.003906 211.613281 Z M 188.347656 246.9375 L 145.289062 246.9375 L 156.824219 211.613281 L 199.945312 211.613281 Z M 232.125 246.9375 L 191.230469 246.9375 L 202.765625 211.613281 L 243.660156 211.613281 Z M 333.96875 84.996094 L 334.230469 83.554688 L 316.796875 83.554688 C 314.699219 75.035156 308.605469 68.746094 300.675781 67.042969 C 289.597656 64.617188 278.394531 71.890625 274.589844 83.554688 L 262.207031 83.554688 C 260.042969 75.167969 253.949219 68.875 246.082031 67.171875 C 235.074219 64.746094 223.867188 71.957031 220.066406 83.554688 L 207.351562 83.554688 C 205.1875 75.234375 199.160156 69.074219 191.296875 67.367188 C 180.285156 64.945312 169.210938 72.085938 165.34375 83.621094 L 153.023438 83.621094 C 150.792969 75.296875 144.765625 69.203125 136.964844 67.5 C 126.023438 65.074219 114.945312 72.21875 111.078125 83.621094 L 93.121094 83.621094 L 92.269531 90.042969 C 92.140625 91.289062 76.804688 217.578125 25.359375 283.507812 L 23.65625 285.667969 L 56.292969 285.667969 L 51.769531 310.375 L 351.335938 310.375 Z M 300.085938 69.664062 C 306.769531 71.167969 312.011719 76.414062 313.980469 83.554688 L 277.410156 83.554688 C 281.078125 73.726562 290.648438 67.632812 300.085938 69.664062 Z M 245.492188 69.859375 C 252.179688 71.300781 257.355469 76.542969 259.386719 83.621094 L 222.949219 83.621094 C 226.621094 73.792969 236.121094 67.761719 245.492188 69.859375 Z M 190.707031 69.992188 C 197.324219 71.433594 202.503906 76.609375 204.535156 83.621094 L 168.160156 83.621094 C 171.898438 73.921875 181.398438 67.957031 190.707031 69.992188 Z M 136.375 70.121094 C 142.929688 71.5625 148.105469 76.675781 150.203125 83.554688 L 113.964844 83.554688 C 117.699219 73.988281 127.136719 68.089844 136.375 70.121094 Z M 94.957031 90.304688 L 95.480469 86.308594 L 110.292969 86.308594 C 110.292969 86.375 110.226562 86.503906 110.226562 86.570312 C 108.851562 92.929688 109.769531 99.351562 112.785156 104.722656 C 115.863281 110.164062 120.714844 113.832031 126.480469 115.078125 L 127.070312 112.457031 C 122.089844 111.34375 117.828125 108.132812 115.144531 103.347656 C 112.457031 98.5625 111.605469 92.796875 112.847656 87.09375 C 112.914062 86.765625 112.980469 86.503906 113.046875 86.242188 L 164.558594 86.242188 C 164.558594 86.308594 164.558594 86.308594 164.492188 86.375 C 163.113281 92.730469 164.03125 99.152344 167.046875 104.527344 C 170.128906 109.96875 174.976562 113.636719 180.742188 114.949219 L 181.332031 112.328125 C 176.289062 111.210938 172.09375 108 169.40625 103.28125 C 166.71875 98.5 165.867188 92.730469 167.113281 87.03125 C 167.179688 86.765625 167.242188 86.570312 167.308594 86.308594 L 219.277344 86.308594 C 216.394531 99.414062 223.734375 112.261719 235.597656 114.816406 L 236.1875 112.195312 C 225.765625 109.902344 219.410156 98.5625 221.964844 86.898438 C 222.03125 86.703125 222.097656 86.503906 222.097656 86.308594 L 273.804688 86.308594 C 272.496094 92.601562 273.410156 98.957031 276.425781 104.332031 C 279.507812 109.769531 284.355469 113.441406 290.125 114.6875 L 290.714844 112.0625 C 285.667969 110.949219 281.472656 107.738281 278.785156 102.953125 C 276.097656 98.171875 275.246094 92.402344 276.492188 86.703125 C 276.492188 86.570312 276.558594 86.441406 276.625 86.308594 L 331.019531 86.308594 C 328.855469 97.253906 324.464844 113.441406 319.023438 131.921875 L 87.878906 131.921875 C 92.925781 107.542969 94.957031 90.765625 94.957031 90.304688 Z M 29.160156 282.980469 C 60.683594 241.234375 78.378906 177.273438 87.289062 134.609375 L 318.171875 134.609375 C 300.609375 193.460938 272.757812 273.542969 269.480469 282.980469 Z M 290.515625 307.625 L 54.980469 307.625 L 58.976562 285.667969 L 271.378906 285.667969 L 271.707031 284.75 C 272.167969 283.507812 305.984375 186.839844 324.003906 124.1875 Z M 293.269531 307.625 L 330.429688 104.460938 L 321.710938 307.625 Z M 332.984375 107.609375 L 348.386719 307.625 L 324.464844 307.625 Z M 332.984375 107.609375 " fill-opacity="1" fill-rule="nonzero"/></g><path fill="#000000" d="M 240.476562 163.824219 C 229.746094 163.824219 221.003906 172.5625 221.003906 183.300781 C 221.003906 194.039062 229.738281 202.78125 240.476562 202.78125 C 251.214844 202.78125 259.949219 194.039062 259.949219 183.300781 C 259.949219 172.5625 251.214844 163.824219 240.476562 163.824219 Z M 240.476562 198.996094 C 231.832031 198.996094 224.789062 191.953125 224.789062 183.300781 C 224.789062 174.648438 231.828125 167.609375 240.476562 167.609375 C 249.128906 167.609375 256.164062 174.644531 256.164062 183.300781 C 256.160156 191.953125 249.125 198.996094 240.476562 198.996094 Z M 240.476562 198.996094 " fill-opacity="1" fill-rule="nonzero"/><path fill="#000000" d="M 259.890625 160.136719 C 254.457031 155.582031 247.570312 153.070312 240.492188 153.070312 C 231.519531 153.070312 223.074219 157.011719 217.316406 163.882812 C 207.886719 175.136719 207.886719 191.46875 217.316406 202.722656 C 223.742188 210.390625 231.171875 217.15625 239.40625 222.835938 C 239.722656 223.058594 240.105469 223.167969 240.476562 223.167969 C 240.855469 223.167969 241.226562 223.058594 241.550781 222.835938 C 249.78125 217.160156 257.21875 210.398438 263.636719 202.722656 C 268.824219 196.535156 271.289062 188.695312 270.585938 180.652344 C 269.875 172.605469 266.074219 165.320312 259.890625 160.136719 Z M 260.734375 200.289062 C 254.8125 207.359375 248 213.632812 240.476562 218.964844 C 232.953125 213.640625 226.148438 207.367188 220.21875 200.289062 C 211.96875 190.441406 211.96875 176.160156 220.21875 166.308594 C 225.253906 160.296875 232.640625 156.851562 240.488281 156.851562 C 246.683594 156.851562 252.707031 159.046875 257.457031 163.035156 C 262.867188 167.570312 266.191406 173.945312 266.804688 180.976562 C 267.429688 188.023438 265.269531 194.875 260.734375 200.289062 Z M 260.734375 200.289062 " fill-opacity="1" fill-rule="nonzero"/><path fill="#000000" d="M 106.089844 273.683594 C 105.726562 273.683594 105.359375 273.582031 105.039062 273.359375 C 104.171875 272.777344 103.941406 271.597656 104.523438 270.734375 C 105.621094 269.101562 106.804688 267.519531 108.042969 266.035156 C 108.710938 265.226562 109.902344 265.117188 110.707031 265.792969 C 111.507812 266.464844 111.617188 267.652344 110.949219 268.457031 C 109.792969 269.847656 108.6875 271.328125 107.660156 272.847656 C 107.296875 273.390625 106.703125 273.683594 106.089844 273.683594 Z M 106.089844 273.683594 " fill-opacity="1" fill-rule="nonzero"/><path fill="#000000" d="M 118.382812 260.613281 C 117.816406 260.613281 117.253906 260.355469 116.878906 259.867188 C 116.246094 259.039062 116.40625 257.855469 117.234375 257.21875 C 120.605469 254.640625 124.277344 252.4375 128.148438 250.671875 C 129.101562 250.230469 130.222656 250.652344 130.65625 251.605469 C 131.089844 252.558594 130.671875 253.683594 129.722656 254.113281 C 126.109375 255.769531 122.679688 257.828125 119.535156 260.230469 C 119.1875 260.476562 118.785156 260.613281 118.382812 260.613281 Z M 191.925781 257.015625 C 190.871094 257.015625 189.8125 256.988281 188.761719 256.925781 C 187.71875 256.863281 186.921875 255.972656 186.984375 254.925781 C 187.042969 253.886719 187.929688 253.105469 188.980469 253.148438 C 192.9375 253.382812 196.921875 253.144531 200.8125 252.441406 C 201.847656 252.261719 202.824219 252.949219 203.007812 253.96875 C 203.199219 255 202.511719 255.984375 201.484375 256.171875 C 198.332031 256.738281 195.117188 257.015625 191.925781 257.015625 Z M 176.753906 254.773438 C 176.574219 254.773438 176.386719 254.742188 176.203125 254.6875 C 174.703125 254.230469 173.210938 253.707031 171.734375 253.113281 C 169.421875 252.183594 167.027344 251.410156 164.617188 250.820312 C 163.601562 250.570312 162.980469 249.542969 163.230469 248.53125 C 163.480469 247.519531 164.507812 246.886719 165.519531 247.144531 C 168.105469 247.78125 170.667969 248.613281 173.144531 249.601562 C 174.523438 250.15625 175.910156 250.644531 177.3125 251.070312 C 178.3125 251.378906 178.875 252.433594 178.566406 253.4375 C 178.320312 254.242188 177.570312 254.773438 176.753906 254.773438 Z M 212.914062 252.628906 C 212.183594 252.628906 211.488281 252.207031 211.179688 251.496094 C 210.761719 250.53125 211.199219 249.417969 212.15625 249.003906 C 215.789062 247.417969 219.234375 245.398438 222.390625 243.011719 C 223.222656 242.382812 224.40625 242.542969 225.042969 243.378906 C 225.671875 244.210938 225.507812 245.398438 224.671875 246.03125 C 221.28125 248.597656 217.578125 250.769531 213.675781 252.472656 C 213.425781 252.582031 213.167969 252.628906 212.914062 252.628906 Z M 140.617188 250.433594 C 139.742188 250.433594 138.957031 249.820312 138.769531 248.933594 C 138.554688 247.90625 139.210938 246.90625 140.234375 246.691406 C 144.066406 245.886719 147.992188 245.484375 151.898438 245.484375 L 152.898438 245.492188 C 153.941406 245.511719 154.773438 246.367188 154.753906 247.421875 C 154.738281 248.464844 153.949219 249.203125 152.828125 249.28125 L 151.894531 249.273438 C 148.246094 249.273438 144.582031 249.652344 141 250.398438 C 140.875 250.421875 140.746094 250.433594 140.617188 250.433594 Z M 140.617188 250.433594 " fill-opacity="1" fill-rule="nonzero"/><path fill="#000000" d="M 232.414062 237.859375 C 231.992188 237.859375 231.566406 237.71875 231.21875 237.433594 C 230.410156 236.769531 230.292969 235.578125 230.957031 234.765625 C 232.105469 233.363281 233.191406 231.878906 234.1875 230.347656 C 234.757812 229.480469 235.933594 229.234375 236.808594 229.800781 C 237.679688 230.367188 237.925781 231.542969 237.359375 232.417969 C 236.289062 234.0625 235.117188 235.652344 233.886719 237.167969 C 233.503906 237.617188 232.957031 237.859375 232.414062 237.859375 Z M 232.414062 237.859375 " fill-opacity="1" fill-rule="nonzero"/><g fill="#ffffff" fill-opacity="1"><g transform="translate(204.192985, 186.244907)"><g><path d="M 1.40625 0.046875 C 1.207031 0.046875 1.050781 -0.00390625 0.9375 -0.109375 C 0.820312 -0.222656 0.765625 -0.375 0.765625 -0.5625 C 0.765625 -0.738281 0.820312 -0.882812 0.9375 -1 C 1.050781 -1.125 1.207031 -1.1875 1.40625 -1.1875 C 1.601562 -1.1875 1.757812 -1.128906 1.875 -1.015625 C 1.988281 -0.898438 2.046875 -0.75 2.046875 -0.5625 C 2.046875 -0.382812 1.988281 -0.238281 1.875 -0.125 C 1.757812 -0.0078125 1.601562 0.046875 1.40625 0.046875 Z M 1.40625 0.046875 "/></g></g></g><g fill="#000000" fill-opacity="1"><g transform="translate(139.304614, 346.691151)"><g><path d="M 2.34375 0.09375 C 2.007812 0.09375 1.742188 0 1.546875 -0.1875 C 1.359375 -0.375 1.265625 -0.625 1.265625 -0.9375 C 1.265625 -1.238281 1.359375 -1.484375 1.546875 -1.671875 C 1.742188 -1.867188 2.007812 -1.96875 2.34375 -1.96875 C 2.675781 -1.96875 2.9375 -1.875 3.125 -1.6875 C 3.320312 -1.5 3.421875 -1.253906 3.421875 -0.953125 C 3.421875 -0.640625 3.320312 -0.382812 3.125 -0.1875 C 2.9375 0 2.675781 0.09375 2.34375 0.09375 Z M 2.34375 0.09375 "/></g></g></g></svg>