<svg xmlns="http://www.w3.org/2000/svg" xmlns:xlink="http://www.w3.org/1999/xlink" width="500" zoomAndPan="magnify" viewBox="0 0 375 374.999991" height="500" preserveAspectRatio="xMidYMid meet" version="1.0"><defs><g/><clipPath id="9a26d3d0b2"><path d="M 61.253906 52.597656 L 314 52.597656 L 314 305.347656 L 61.253906 305.347656 Z M 61.253906 52.597656 " clip-rule="nonzero"/></clipPath></defs><path fill="#e2b808" d="M 187.519531 108.148438 C 170.777344 108.148438 157.203125 121.71875 157.203125 138.460938 C 157.203125 155.203125 170.777344 168.773438 187.519531 168.773438 C 204.261719 168.773438 217.832031 155.203125 217.832031 138.460938 C 217.832031 121.71875 204.261719 108.148438 187.519531 108.148438 " fill-opacity="1" fill-rule="nonzero"/><g clip-path="url(#9a26d3d0b2)"><path fill="#e2b808" d="M 187.519531 256.171875 C 187.519531 256.171875 130.628906 178.757812 130.628906 147.335938 C 130.628906 115.917969 156.097656 90.445312 187.519531 90.445312 C 218.9375 90.445312 244.410156 115.917969 244.410156 147.335938 C 244.410156 178.757812 187.519531 256.171875 187.519531 256.171875 Z M 187.519531 52.605469 C 117.789062 52.605469 61.265625 109.132812 61.265625 178.859375 C 61.265625 248.589844 117.789062 305.113281 187.519531 305.113281 C 257.246094 305.113281 313.769531 248.589844 313.769531 178.859375 C 313.769531 109.132812 257.246094 52.605469 187.519531 52.605469 " fill-opacity="1" fill-rule="nonzero"/></g><g fill="#ffffff" fill-opacity="1"><g transform="translate(238.727595, 365.444448)"><g><path d="M 2.109375 0.078125 C 1.804688 0.078125 1.566406 -0.00390625 1.390625 -0.171875 C 1.222656 -0.335938 1.140625 -0.5625 1.140625 -0.84375 C 1.140625 -1.113281 1.222656 -1.332031 1.390625 -1.5 C 1.566406 -1.675781 1.804688 -1.765625 2.109375 -1.765625 C 2.410156 -1.765625 2.644531 -1.679688 2.8125 -1.515625 C 2.988281 -1.347656 3.078125 -1.128906 3.078125 -0.859375 C 3.078125 -0.578125 2.988281 -0.347656 2.8125 -0.171875 C 2.632812 -0.00390625 2.398438 0.078125 2.109375 0.078125 Z M 2.109375 0.078125 "/></g></g></g></svg>