<svg xmlns="http://www.w3.org/2000/svg" xmlns:xlink="http://www.w3.org/1999/xlink" width="500" zoomAndPan="magnify" viewBox="0 0 375 374.999991" height="500" preserveAspectRatio="xMidYMid meet" version="1.0"><defs><g/><clipPath id="9f0f38dc44"><path d="M 62 320 L 164 320 L 164 330.75 L 62 330.75 Z M 62 320 " clip-rule="nonzero"/></clipPath><clipPath id="1f1c996728"><path d="M 174 320 L 185 320 L 185 330.75 L 174 330.75 Z M 174 320 " clip-rule="nonzero"/></clipPath><clipPath id="46021e73e5"><path d="M 35.917969 96 L 143 96 L 143 326 L 35.917969 326 Z M 35.917969 96 " clip-rule="nonzero"/></clipPath><clipPath id="efba8b4b41"><path d="M 35.917969 117 L 117 117 L 117 214 L 35.917969 214 Z M 35.917969 117 " clip-rule="nonzero"/></clipPath><clipPath id="f90f15c457"><path d="M 35.917969 229 L 52 229 L 52 241 L 35.917969 241 Z M 35.917969 229 " clip-rule="nonzero"/></clipPath><clipPath id="61498f50ab"><path d="M 35.917969 250 L 52 250 L 52 262 L 35.917969 262 Z M 35.917969 250 " clip-rule="nonzero"/></clipPath><clipPath id="0484576274"><path d="M 35.917969 288 L 106 288 L 106 299 L 35.917969 299 Z M 35.917969 288 " clip-rule="nonzero"/></clipPath><clipPath id="9a044c8e94"><path d="M 195 107 L 338.917969 107 L 338.917969 330.75 L 195 330.75 Z M 195 107 " clip-rule="nonzero"/></clipPath><clipPath id="b2bf207cb9"><path d="M 243 320 L 292 320 L 292 330.75 L 243 330.75 Z M 243 320 " clip-rule="nonzero"/></clipPath><clipPath id="5badd3ac09"><path d="M 178 37.5 L 197 37.5 L 197 71 L 178 71 Z M 178 37.5 " clip-rule="nonzero"/></clipPath></defs><g clip-path="url(#9f0f38dc44)"><path fill="#000000" d="M 62.515625 320.003906 L 163.507812 320.003906 L 163.507812 330.640625 L 62.515625 330.640625 Z M 62.515625 320.003906 " fill-opacity="1" fill-rule="nonzero"/></g><g clip-path="url(#1f1c996728)"><path fill="#000000" d="M 174.140625 320.003906 L 184.769531 320.003906 L 184.769531 330.640625 L 174.140625 330.640625 Z M 174.140625 320.003906 " fill-opacity="1" fill-rule="nonzero"/></g><g clip-path="url(#46021e73e5)"><path fill="#000000" d="M 142.246094 325.324219 L 131.617188 325.324219 L 131.617188 250.347656 C 131.617188 230.230469 127.753906 210.582031 120.140625 191.960938 L 90.929688 120.527344 C 87.644531 112.5 79.917969 107.3125 71.25 107.3125 L 35.933594 107.3125 L 35.933594 96.679688 L 71.25 96.679688 C 84.25 96.679688 95.835938 104.457031 100.769531 116.496094 L 129.980469 187.929688 C 138.117188 207.839844 142.246094 228.835938 142.246094 250.347656 Z M 142.246094 325.324219 " fill-opacity="1" fill-rule="nonzero"/></g><g clip-path="url(#efba8b4b41)"><path fill="#000000" d="M 116.378906 213.65625 L 35.933594 213.65625 L 35.933594 203.019531 L 101.640625 203.019531 C 101.253906 201.980469 100.859375 200.984375 100.464844 200.011719 L 71.242188 128.574219 L 35.933594 128.574219 L 35.933594 117.941406 L 71.25 117.941406 C 75.582031 117.941406 79.441406 120.535156 81.082031 124.542969 L 110.300781 195.976562 C 111.625 199.214844 112.890625 202.734375 114.164062 206.714844 Z M 116.378906 213.65625 " fill-opacity="1" fill-rule="nonzero"/></g><g clip-path="url(#f90f15c457)"><path fill="#000000" d="M 35.933594 229.609375 L 51.882812 229.609375 L 51.882812 240.246094 L 35.933594 240.246094 Z M 35.933594 229.609375 " fill-opacity="1" fill-rule="nonzero"/></g><g clip-path="url(#61498f50ab)"><path fill="#000000" d="M 35.933594 250.878906 L 51.882812 250.878906 L 51.882812 261.511719 L 35.933594 261.511719 Z M 35.933594 250.878906 " fill-opacity="1" fill-rule="nonzero"/></g><g clip-path="url(#0484576274)"><path fill="#000000" d="M 35.933594 288.101562 L 105.035156 288.101562 L 105.035156 298.734375 L 35.933594 298.734375 Z M 35.933594 288.101562 " fill-opacity="1" fill-rule="nonzero"/></g><path fill="#000000" d="M 83.773438 293.414062 L 94.40625 293.414062 L 94.40625 325.320312 L 83.773438 325.320312 Z M 83.773438 293.414062 " fill-opacity="1" fill-rule="nonzero"/><path fill="#000000" d="M 105.035156 277.46875 L 78.457031 277.46875 C 72.597656 277.46875 67.828125 272.695312 67.828125 266.832031 L 67.828125 261.511719 C 67.828125 243.921875 82.132812 229.609375 99.71875 229.609375 L 105.035156 229.609375 C 113.832031 229.609375 120.984375 236.765625 120.984375 245.5625 L 120.984375 261.519531 C 120.984375 270.316406 113.832031 277.472656 105.035156 277.472656 Z M 99.71875 240.246094 C 87.992188 240.246094 78.457031 249.785156 78.457031 261.511719 L 78.457031 266.832031 L 105.035156 266.832031 C 107.972656 266.832031 110.355469 264.449219 110.355469 261.511719 L 110.355469 245.558594 C 110.355469 242.621094 107.972656 240.238281 105.035156 240.238281 L 99.71875 240.238281 Z M 99.71875 240.246094 " fill-opacity="1" fill-rule="nonzero"/><path fill="#000000" d="M 131.109375 207.019531 L 127.746094 196.933594 L 152.882812 188.550781 L 152.882812 176.425781 L 117.363281 176.425781 L 117.363281 165.792969 L 152.882812 165.792969 C 158.742188 165.792969 163.515625 170.566406 163.515625 176.425781 L 163.515625 188.550781 C 163.515625 193.132812 160.589844 197.1875 156.238281 198.636719 L 131.109375 207.015625 Z M 131.109375 207.019531 " fill-opacity="1" fill-rule="nonzero"/><path fill="#000000" d="M 253.871094 123.261719 C 243.789062 123.261719 234.695312 117.613281 230.152344 108.523438 L 224.839844 97.894531 C 222.941406 94.105469 221.980469 90.121094 221.980469 86.039062 C 221.980469 71.378906 233.90625 59.449219 248.558594 59.449219 C 258.644531 59.449219 267.738281 65.09375 272.28125 74.1875 L 277.59375 84.816406 C 279.488281 88.605469 280.453125 92.589844 280.453125 96.671875 C 280.453125 111.332031 268.527344 123.261719 253.871094 123.261719 Z M 248.554688 70.089844 C 239.757812 70.089844 232.605469 77.246094 232.605469 86.042969 C 232.605469 88.453125 233.1875 90.84375 234.339844 93.136719 L 239.660156 103.773438 C 242.390625 109.238281 247.839844 112.632812 253.871094 112.632812 C 262.667969 112.632812 269.820312 105.476562 269.820312 96.679688 C 269.820312 94.265625 269.242188 91.878906 268.085938 89.582031 L 262.765625 78.949219 C 260.035156 73.484375 254.585938 70.089844 248.554688 70.089844 Z M 248.554688 70.089844 " fill-opacity="1" fill-rule="nonzero"/><g clip-path="url(#9a044c8e94)"><path fill="#000000" d="M 317.660156 330.640625 L 291.082031 330.640625 C 285.234375 330.640625 280.460938 325.871094 280.453125 320.015625 C 280.453125 306.820312 290.105469 302.308594 296.402344 300.167969 L 296.402344 231.128906 L 257.019531 167.976562 L 253.027344 175.851562 C 249.023438 185.5625 241.835938 187.066406 237.929688 187.066406 L 211.347656 187.066406 C 202.554688 187.066406 195.402344 179.910156 195.402344 171.113281 C 195.402344 162.3125 202.554688 155.160156 211.347656 155.160156 L 227.402344 155.160156 L 238.664062 126.523438 C 240.636719 121.441406 243.980469 116.960938 248.320312 113.605469 L 254.824219 122.015625 C 252.015625 124.191406 249.847656 127.085938 248.570312 130.394531 L 234.65625 165.792969 L 211.355469 165.792969 C 208.417969 165.792969 206.035156 168.175781 206.035156 171.113281 C 206.035156 174.050781 208.417969 176.433594 211.355469 176.433594 L 237.933594 176.433594 C 238.941406 176.433594 241.300781 176.433594 243.378906 171.410156 L 256.054688 146.339844 L 307.035156 228.082031 L 307.035156 307.878906 L 301.796875 309.609375 C 295.328125 311.625 291.089844 313.445312 291.09375 320.003906 L 317.671875 320.003906 C 320.609375 320.003906 322.992188 317.621094 322.992188 314.683594 L 323.152344 233.636719 L 326.679688 219.535156 C 327.757812 215.199219 328.308594 210.734375 328.308594 206.273438 C 328.308594 194.554688 324.648438 183.371094 317.722656 173.933594 L 282.382812 125.726562 C 278.902344 121.078125 273.53125 118.230469 267.664062 117.964844 L 268.152344 107.339844 C 277.199219 107.753906 285.5 112.152344 290.921875 119.390625 L 326.292969 167.632812 C 334.5625 178.914062 338.929688 192.277344 338.929688 206.265625 C 338.929688 211.597656 338.277344 216.933594 336.976562 222.105469 L 333.617188 235.578125 L 333.617188 314.683594 C 333.617188 323.484375 326.460938 330.640625 317.667969 330.640625 Z M 317.660156 330.640625 " fill-opacity="1" fill-rule="nonzero"/></g><g clip-path="url(#b2bf207cb9)"><path fill="#000000" d="M 243.242188 320.003906 L 291.082031 320.003906 L 291.082031 330.640625 L 243.242188 330.640625 Z M 243.242188 320.003906 " fill-opacity="1" fill-rule="nonzero"/></g><path fill="#000000" d="M 259.648438 277.46875 L 178.992188 277.46875 L 185.195312 203.019531 L 253.445312 203.019531 Z M 190.546875 266.832031 L 248.09375 266.832031 L 243.667969 213.660156 L 194.976562 213.660156 Z M 190.546875 266.832031 " fill-opacity="1" fill-rule="nonzero"/><path fill="#000000" d="M 237.929688 208.339844 L 227.296875 208.339844 L 227.296875 195.046875 C 227.296875 190.652344 223.722656 187.074219 219.328125 187.074219 C 214.929688 187.074219 211.355469 190.652344 211.355469 195.046875 L 211.355469 208.339844 L 200.722656 208.339844 L 200.722656 195.046875 C 200.722656 184.789062 209.070312 176.4375 219.328125 176.4375 C 229.582031 176.4375 237.929688 184.789062 237.929688 195.046875 Z M 237.929688 208.339844 " fill-opacity="1" fill-rule="nonzero"/><g clip-path="url(#5badd3ac09)"><path fill="#000000" d="M 178.4375 40.199219 L 188.746094 37.601562 L 196.429688 68.101562 L 186.121094 70.699219 Z M 178.4375 40.199219 " fill-opacity="1" fill-rule="nonzero"/></g><path fill="#000000" d="M 108.691406 81.324219 L 116.207031 73.804688 L 138.546875 96.152344 L 131.03125 103.671875 Z M 108.691406 81.324219 " fill-opacity="1" fill-rule="nonzero"/><g fill="#ffffff" fill-opacity="1"><g transform="translate(186.234367, 186.374988)"><g><path d="M 1.265625 0.046875 C 1.085938 0.046875 0.945312 0 0.84375 -0.09375 C 0.738281 -0.195312 0.6875 -0.332031 0.6875 -0.5 C 0.6875 -0.664062 0.738281 -0.800781 0.84375 -0.90625 C 0.945312 -1.007812 1.085938 -1.0625 1.265625 -1.0625 C 1.441406 -1.0625 1.582031 -1.007812 1.6875 -0.90625 C 1.789062 -0.8125 1.84375 -0.679688 1.84375 -0.515625 C 1.84375 -0.347656 1.789062 -0.210938 1.6875 -0.109375 C 1.582031 -0.00390625 1.441406 0.046875 1.265625 0.046875 Z M 1.265625 0.046875 "/></g></g></g></svg>