<svg xmlns="http://www.w3.org/2000/svg" xmlns:xlink="http://www.w3.org/1999/xlink" width="500" zoomAndPan="magnify" viewBox="0 0 375 374.999991" height="500" preserveAspectRatio="xMidYMid meet" version="1.0"><defs><g/><clipPath id="3fcb1046de"><path d="M 210 40.410156 L 324 40.410156 L 324 337 L 210 337 Z M 210 40.410156 " clip-rule="nonzero"/></clipPath><clipPath id="85477c875f"><path d="M 32.402344 330 L 345.152344 330 L 345.152344 337 L 32.402344 337 Z M 32.402344 330 " clip-rule="nonzero"/></clipPath></defs><path fill="#000000" d="M 139.476562 336.964844 C 139.429688 336.964844 139.382812 336.964844 139.335938 336.964844 C 137.558594 336.886719 136.183594 335.382812 136.261719 333.609375 L 142.476562 190.6875 C 142.554688 188.914062 144.082031 187.585938 145.828125 187.613281 C 147.605469 187.691406 148.980469 189.195312 148.902344 190.96875 L 142.6875 333.890625 C 142.613281 335.617188 141.1875 336.964844 139.476562 336.964844 Z M 139.476562 336.964844 " fill-opacity="1" fill-rule="nonzero"/><path fill="#000000" d="M 175.515625 336.964844 L 48.253906 336.964844 C 46.652344 336.964844 45.113281 336.28125 44.046875 335.082031 C 42.976562 333.882812 42.46875 332.28125 42.652344 330.6875 L 56.441406 210.5625 C 56.4375 210.5625 56.433594 210.5625 56.425781 210.5625 C 54.851562 210.5625 53.339844 209.898438 52.273438 208.742188 C 51.203125 207.582031 50.667969 206.011719 50.804688 204.441406 L 51.816406 192.765625 C 52.070312 189.828125 54.484375 187.613281 57.4375 187.613281 L 163.847656 187.613281 C 166.75 187.613281 169.21875 189.878906 169.464844 192.773438 L 181.136719 330.855469 C 181.269531 332.421875 180.734375 333.988281 179.667969 335.144531 C 178.601562 336.304688 177.089844 336.964844 175.515625 336.964844 Z M 49.144531 330.53125 L 174.648438 330.53125 L 163.113281 194.042969 L 58.167969 194.042969 L 57.292969 204.128906 L 144.976562 203.808594 C 144.980469 203.808594 144.984375 203.808594 144.984375 203.808594 C 146.757812 203.808594 148.199219 205.242188 148.203125 207.015625 C 148.210938 208.792969 146.777344 210.238281 144.996094 210.242188 L 62.921875 210.539062 Z M 49.144531 330.53125 " fill-opacity="1" fill-rule="nonzero"/><path fill="#000000" d="M 155.359375 305.894531 C 153.582031 305.894531 152.140625 304.453125 152.140625 302.679688 L 152.140625 248.824219 C 152.140625 247.050781 153.582031 245.609375 155.359375 245.609375 C 157.140625 245.609375 158.578125 247.050781 158.578125 248.824219 L 158.578125 302.679688 C 158.578125 304.453125 157.136719 305.894531 155.359375 305.894531 Z M 155.359375 305.894531 " fill-opacity="1" fill-rule="nonzero"/><path fill="#000000" d="M 140.851562 336.964844 C 140.398438 336.964844 139.933594 336.867188 139.496094 336.664062 C 137.882812 335.910156 137.1875 333.996094 137.941406 332.386719 L 154.863281 296.136719 L 178.757812 331.964844 C 179.746094 333.441406 179.347656 335.4375 177.867188 336.425781 C 176.386719 337.410156 174.390625 337.011719 173.402344 335.535156 L 155.855469 309.222656 L 143.773438 335.109375 C 143.222656 336.28125 142.066406 336.964844 140.851562 336.964844 Z M 140.851562 336.964844 " fill-opacity="1" fill-rule="nonzero"/><path fill="#000000" d="M 323.410156 336.964844 L 179.542969 336.964844 L 179.542969 67.828125 L 214.105469 67.828125 C 215.878906 67.828125 217.320312 69.269531 217.320312 71.042969 C 217.320312 72.820312 215.882812 74.261719 214.105469 74.261719 L 185.980469 74.261719 L 185.980469 330.53125 L 316.972656 330.53125 L 316.972656 71.042969 C 316.972656 69.269531 318.410156 67.828125 320.191406 67.828125 C 321.96875 67.828125 323.410156 69.269531 323.410156 71.042969 Z M 323.410156 336.964844 " fill-opacity="1" fill-rule="nonzero"/><path fill="#000000" d="M 323.410156 336.964844 L 179.542969 336.964844 L 179.542969 67.828125 L 214.105469 67.828125 C 215.878906 67.828125 217.320312 69.269531 217.320312 71.042969 C 217.320312 72.820312 215.882812 74.261719 214.105469 74.261719 L 185.980469 74.261719 L 185.980469 330.53125 L 316.972656 330.53125 L 316.972656 71.042969 C 316.972656 69.269531 318.410156 67.828125 320.191406 67.828125 C 321.96875 67.828125 323.410156 69.269531 323.410156 71.042969 Z M 323.410156 336.964844 " fill-opacity="1" fill-rule="nonzero"/><g clip-path="url(#3fcb1046de)"><path fill="#000000" d="M 323.410156 336.964844 L 210.886719 336.964844 L 210.886719 40.414062 L 323.410156 68.535156 Z M 217.320312 330.53125 L 316.972656 330.53125 L 316.972656 73.554688 L 217.320312 48.65625 Z M 217.320312 330.53125 " fill-opacity="1" fill-rule="nonzero"/></g><path fill="#000000" d="M 244.242188 216.457031 C 237.707031 216.457031 232.585938 208.691406 232.585938 198.78125 C 232.585938 188.871094 237.707031 181.105469 244.242188 181.105469 C 250.78125 181.105469 255.902344 188.871094 255.902344 198.78125 C 255.902344 208.691406 250.78125 216.457031 244.242188 216.457031 Z M 244.242188 187.535156 C 242.117188 187.535156 239.023438 191.917969 239.023438 198.78125 C 239.023438 205.644531 242.117188 210.027344 244.242188 210.027344 C 246.371094 210.027344 249.464844 205.644531 249.464844 198.78125 C 249.464844 191.917969 246.371094 187.535156 244.242188 187.535156 Z M 244.242188 187.535156 " fill-opacity="1" fill-rule="nonzero"/><g clip-path="url(#85477c875f)"><path fill="#000000" d="M 341.890625 336.964844 L 35.6875 336.964844 C 33.910156 336.964844 32.46875 335.523438 32.46875 333.75 C 32.46875 331.972656 33.90625 330.53125 35.6875 330.53125 L 341.890625 330.53125 C 343.667969 330.53125 345.109375 331.972656 345.109375 333.75 C 345.109375 335.523438 343.667969 336.964844 341.890625 336.964844 Z M 341.890625 336.964844 " fill-opacity="1" fill-rule="nonzero"/></g><g fill="#ffffff" fill-opacity="1"><g transform="translate(186.234367, 186.374988)"><g><path d="M 1.265625 0.046875 C 1.085938 0.046875 0.945312 0 0.84375 -0.09375 C 0.738281 -0.195312 0.6875 -0.332031 0.6875 -0.5 C 0.6875 -0.664062 0.738281 -0.800781 0.84375 -0.90625 C 0.945312 -1.007812 1.085938 -1.0625 1.265625 -1.0625 C 1.441406 -1.0625 1.582031 -1.007812 1.6875 -0.90625 C 1.789062 -0.8125 1.84375 -0.679688 1.84375 -0.515625 C 1.84375 -0.347656 1.789062 -0.210938 1.6875 -0.109375 C 1.582031 -0.00390625 1.441406 0.046875 1.265625 0.046875 Z M 1.265625 0.046875 "/></g></g></g><g fill="#000000" fill-opacity="1"><g transform="translate(140.481881, 333.849969)"><g><path d="M 2.109375 0.078125 C 1.804688 0.078125 1.566406 -0.00390625 1.390625 -0.171875 C 1.222656 -0.335938 1.140625 -0.5625 1.140625 -0.84375 C 1.140625 -1.113281 1.222656 -1.332031 1.390625 -1.5 C 1.566406 -1.675781 1.804688 -1.765625 2.109375 -1.765625 C 2.410156 -1.765625 2.644531 -1.679688 2.8125 -1.515625 C 2.988281 -1.347656 3.078125 -1.128906 3.078125 -0.859375 C 3.078125 -0.578125 2.988281 -0.347656 2.8125 -0.171875 C 2.632812 -0.00390625 2.398438 0.078125 2.109375 0.078125 Z M 2.109375 0.078125 "/></g></g></g></svg>