<svg xmlns="http://www.w3.org/2000/svg" xmlns:xlink="http://www.w3.org/1999/xlink" width="500" zoomAndPan="magnify" viewBox="0 0 375 374.999991" height="500" preserveAspectRatio="xMidYMid meet" version="1.0"><defs><g/><clipPath id="68f2ef4171"><path d="M 37.5 109.304688 L 328.5 109.304688 L 328.5 265.988281 L 37.5 265.988281 Z M 37.5 109.304688 " clip-rule="nonzero"/></clipPath></defs><rect x="-37.5" width="450" fill="#ffffff" y="-37.499999" height="449.999989" fill-opacity="1"/><rect x="-37.5" width="450" fill="#ffffff" y="-37.499999" height="449.999989" fill-opacity="1"/><g clip-path="url(#68f2ef4171)"><path fill="#000000" d="M 272.703125 232.1875 C 266.304688 232.1875 260.589844 237.21875 259.976562 243.425781 C 259.359375 249.632812 264.058594 254.660156 270.472656 254.660156 C 276.886719 254.660156 282.582031 249.632812 283.199219 243.425781 C 283.820312 237.222656 279.117188 232.1875 272.703125 232.1875 Z M 125.65625 232.1875 C 119.25 232.1875 113.542969 237.21875 112.921875 243.425781 C 112.304688 249.632812 117.003906 254.660156 123.417969 254.660156 C 129.828125 254.660156 135.527344 249.632812 136.144531 243.425781 C 136.757812 237.222656 132.0625 232.1875 125.65625 232.1875 Z M 273.84375 220.878906 C 286.710938 220.878906 296.132812 230.964844 294.898438 243.421875 C 293.664062 255.882812 282.21875 265.96875 269.359375 265.96875 C 256.492188 265.96875 247.0625 255.882812 248.3125 243.421875 C 249.574219 230.964844 260.984375 220.878906 273.851562 220.878906 Z M 126.789062 220.878906 C 139.65625 220.878906 149.078125 230.964844 147.828125 243.421875 C 146.578125 255.882812 135.15625 265.96875 122.289062 265.96875 C 109.421875 265.96875 100 255.882812 101.25 243.421875 C 102.503906 230.964844 113.921875 220.878906 126.789062 220.878906 Z M 242.839844 205.503906 C 242.007812 205.519531 241.324219 206.148438 241.230469 206.96875 L 241.121094 208.117188 C 241.027344 208.832031 241.527344 209.480469 242.234375 209.574219 C 242.304688 209.578125 242.367188 209.582031 242.4375 209.582031 L 249.292969 209.582031 C 250.125 209.566406 250.808594 208.941406 250.902344 208.117188 L 251.019531 206.96875 C 251.105469 206.257812 250.605469 205.605469 249.898438 205.515625 C 249.828125 205.507812 249.765625 205.503906 249.707031 205.503906 Z M 157.0625 179.402344 L 158.726562 179.402344 C 159.636719 179.402344 160.289062 179.527344 160.695312 179.789062 C 161.097656 180.0625 161.363281 180.507812 161.410156 180.996094 C 161.480469 181.707031 161.472656 182.425781 161.386719 183.136719 C 161.339844 183.835938 161.183594 184.519531 160.929688 185.175781 C 160.734375 185.65625 160.367188 186.050781 159.902344 186.277344 C 159.304688 186.53125 158.65625 186.648438 158.003906 186.621094 L 156.339844 186.621094 L 157.0625 179.410156 Z M 140.957031 179.402344 L 142.617188 179.402344 C 143.527344 179.402344 144.191406 179.527344 144.59375 179.789062 C 144.996094 180.0625 145.261719 180.507812 145.300781 180.996094 C 145.378906 181.707031 145.371094 182.425781 145.285156 183.136719 C 145.230469 183.832031 145.074219 184.519531 144.828125 185.175781 C 144.632812 185.652344 144.265625 186.050781 143.800781 186.277344 C 143.203125 186.53125 142.558594 186.648438 141.902344 186.621094 L 140.238281 186.621094 L 140.957031 179.410156 Z M 177.746094 176.304688 L 175.34375 200.449219 L 179.089844 200.449219 L 180.519531 186.027344 L 184.976562 200.449219 L 187.890625 200.449219 L 190.292969 176.304688 L 186.660156 176.304688 L 185.292969 190.058594 L 180.808594 176.304688 Z M 169.191406 176.304688 L 166.789062 200.449219 L 171.128906 200.449219 L 173.53125 176.304688 Z M 152.96875 176.304688 L 150.566406 200.449219 L 154.964844 200.449219 L 156.03125 189.722656 L 158.410156 189.722656 C 159.597656 189.746094 160.78125 189.523438 161.882812 189.066406 C 162.886719 188.625 163.734375 187.890625 164.316406 186.964844 C 164.957031 186.003906 165.34375 184.738281 165.5 183.164062 C 165.664062 181.925781 165.570312 180.664062 165.226562 179.457031 C 164.949219 178.492188 164.324219 177.660156 163.46875 177.117188 C 162.621094 176.582031 161.480469 176.316406 160.027344 176.3125 Z M 136.867188 176.304688 L 134.464844 200.449219 L 138.863281 200.449219 L 139.929688 189.722656 L 142.308594 189.722656 C 143.496094 189.746094 144.679688 189.523438 145.785156 189.066406 C 146.785156 188.625 147.632812 187.890625 148.214844 186.964844 C 148.847656 186.003906 149.242188 184.738281 149.398438 183.164062 C 149.5625 181.925781 149.46875 180.664062 149.132812 179.457031 C 148.847656 178.492188 148.222656 177.660156 147.371094 177.117188 C 146.523438 176.582031 145.378906 176.316406 143.925781 176.3125 Z M 128.328125 176.304688 L 125.917969 200.449219 L 130.265625 200.449219 L 132.667969 176.304688 Z M 110.921875 176.304688 L 108.519531 200.449219 L 112.890625 200.449219 L 113.976562 189.542969 L 118.882812 189.542969 L 117.796875 200.449219 L 122.195312 200.449219 L 124.597656 176.304688 L 120.199219 176.304688 L 119.195312 186.390625 L 114.289062 186.390625 L 115.292969 176.304688 Z M 200.367188 176.035156 C 198.601562 176.035156 197.1875 176.367188 196.125 177.035156 C 195.042969 177.714844 194.203125 178.722656 193.738281 179.910156 C 193.175781 181.34375 192.828125 182.847656 192.703125 184.378906 L 191.894531 192.484375 C 191.714844 193.949219 191.769531 195.433594 192.066406 196.878906 C 192.28125 198.011719 192.890625 199.03125 193.78125 199.757812 C 194.644531 200.429688 195.867188 200.765625 197.445312 200.769531 C 198.410156 200.8125 199.359375 200.542969 200.152344 200.007812 C 200.851562 199.5 201.410156 198.832031 201.78125 198.058594 L 201.875 200.441406 L 204.699219 200.441406 L 205.917969 188.195312 L 199.378906 188.195312 L 199.101562 190.964844 L 201.691406 190.964844 L 201.464844 193.230469 C 201.402344 194 201.246094 194.757812 201.019531 195.492188 C 200.84375 196.066406 200.523438 196.582031 200.082031 196.984375 C 199.605469 197.363281 199 197.554688 198.394531 197.519531 C 197.824219 197.566406 197.273438 197.386719 196.839844 197.027344 C 196.464844 196.644531 196.238281 196.144531 196.199219 195.613281 C 196.125 194.890625 196.125 194.160156 196.199219 193.4375 L 197.203125 183.335938 C 197.273438 182.65625 197.382812 181.976562 197.546875 181.3125 C 197.671875 180.75 197.941406 180.230469 198.347656 179.820312 C 198.726562 179.441406 199.3125 179.253906 200.082031 179.253906 C 200.820312 179.253906 201.332031 179.398438 201.628906 179.6875 C 201.953125 180.035156 202.140625 180.484375 202.15625 180.953125 C 202.210938 181.621094 202.195312 182.285156 202.125 182.949219 L 201.984375 184.320312 L 206.175781 184.320312 L 206.300781 183.070312 C 206.472656 181.796875 206.378906 180.503906 206.042969 179.269531 C 205.75 178.261719 205.078125 177.40625 204.183594 176.871094 C 203.269531 176.3125 201.984375 176.035156 200.34375 176.035156 Z M 101.671875 176.035156 C 99.75 176.035156 98.1875 176.550781 96.976562 177.585938 C 95.753906 178.617188 95.054688 180.089844 94.867188 181.996094 C 94.703125 183.136719 94.851562 184.292969 95.289062 185.359375 C 95.722656 186.28125 96.335938 187.113281 97.082031 187.800781 L 99.851562 190.484375 C 100.503906 191.078125 101.078125 191.761719 101.554688 192.511719 C 101.980469 193.304688 102.136719 194.214844 102.003906 195.105469 C 101.964844 195.695312 101.757812 196.257812 101.398438 196.726562 C 100.558594 197.554688 99.222656 197.582031 98.34375 196.789062 C 97.960938 196.316406 97.722656 195.742188 97.652344 195.132812 C 97.527344 194.3125 97.496094 193.484375 97.550781 192.660156 L 93.703125 193.40625 C 93.578125 194.761719 93.726562 196.128906 94.136719 197.425781 C 94.480469 198.460938 95.164062 199.339844 96.089844 199.914062 C 97.007812 200.480469 98.1875 200.765625 99.632812 200.765625 C 100.761719 200.785156 101.871094 200.523438 102.875 200.003906 C 103.808594 199.511719 104.609375 198.789062 105.191406 197.902344 C 105.800781 196.992188 106.164062 195.9375 106.257812 194.847656 C 106.414062 193.257812 106.195312 191.902344 105.605469 190.78125 C 105.03125 189.679688 104.265625 188.6875 103.359375 187.84375 L 100.613281 185.191406 C 100.101562 184.722656 99.664062 184.175781 99.316406 183.570312 C 99.011719 182.945312 98.910156 182.242188 99.011719 181.558594 C 99.050781 180.960938 99.292969 180.390625 99.6875 179.945312 C 100.085938 179.515625 100.660156 179.277344 101.25 179.304688 C 101.765625 179.261719 102.277344 179.441406 102.644531 179.808594 C 102.960938 180.210938 103.148438 180.699219 103.1875 181.214844 C 103.257812 181.886719 103.273438 182.566406 103.242188 183.238281 L 107.042969 182.582031 C 107.082031 181.746094 107.019531 180.917969 106.878906 180.09375 C 106.753906 179.351562 106.484375 178.636719 106.09375 177.996094 C 105.691406 177.363281 105.113281 176.859375 104.4375 176.546875 C 103.558594 176.171875 102.621094 175.988281 101.664062 176.027344 Z M 250.746094 146.203125 C 247.792969 146.265625 245.335938 148.507812 244.992188 151.453125 L 240.835938 193.226562 C 240.515625 195.785156 242.328125 198.121094 244.886719 198.441406 C 245.101562 198.46875 245.328125 198.480469 245.546875 198.476562 L 288.429688 198.476562 L 288.429688 198.441406 L 304.898438 198.441406 C 305.269531 198.441406 305.652344 198.367188 306 198.234375 C 307.5625 197.621094 308.472656 195.921875 308.03125 194.40625 L 294.625 149.507812 C 294.027344 147.507812 292.175781 146.15625 290.09375 146.203125 L 250.722656 146.203125 Z M 297.628906 135.75 C 301.722656 135.75 305.160156 138.25 306.289062 142.0625 L 322.085938 194.976562 C 323.152344 198.589844 323.5 202.378906 323.105469 206.125 L 320.820312 228.535156 L 323.796875 228.535156 C 326.339844 228.480469 328.4375 230.5 328.492188 233.042969 C 328.5 233.273438 328.492188 233.503906 328.460938 233.730469 L 327.816406 240.234375 C 327.480469 243.148438 325.046875 245.367188 322.125 245.429688 L 299.710938 245.429688 L 300.015625 243.445312 C 301.539062 228.261719 290.03125 215.9375 274.34375 215.9375 C 258.652344 215.9375 244.707031 228.25 243.199219 243.445312 L 243.097656 245.429688 L 225.003906 245.429688 L 235.914062 135.796875 L 297.613281 135.769531 Z M 124.605469 134.375 L 126.976562 134.375 C 128.820312 134.375 130.023438 134.820312 130.59375 135.710938 C 131.167969 136.605469 131.363281 137.945312 131.183594 139.734375 C 131.105469 140.808594 130.839844 141.859375 130.390625 142.835938 C 130.015625 143.609375 129.386719 144.234375 128.609375 144.59375 C 127.644531 144.996094 126.605469 145.183594 125.5625 145.144531 L 123.546875 145.144531 L 124.621094 134.375 Z M 160.585938 129.933594 L 157.046875 165.539062 L 172.046875 165.539062 L 172.496094 161.054688 L 163.960938 161.054688 L 165.132812 149.273438 L 171.757812 149.273438 L 172.207031 144.746094 L 165.585938 144.746094 L 166.601562 134.503906 L 175.023438 134.503906 L 175.480469 129.921875 Z M 142.316406 129.933594 L 138.769531 165.539062 L 153.769531 165.539062 L 154.21875 161.054688 L 145.707031 161.054688 L 146.878906 149.273438 L 153.503906 149.273438 L 153.953125 144.746094 L 147.332031 144.746094 L 148.347656 134.503906 L 156.769531 134.503906 L 157.226562 129.921875 Z M 118.558594 129.933594 L 115.011719 165.539062 L 121.503906 165.539062 L 123.128906 149.230469 L 126.105469 149.230469 L 128.78125 165.539062 L 135.273438 165.539062 L 132.0625 148 C 133.132812 147.617188 134.097656 146.976562 134.859375 146.132812 C 135.597656 145.277344 136.152344 144.285156 136.484375 143.210938 C 136.890625 141.953125 137.152344 140.652344 137.269531 139.339844 C 137.503906 136.964844 137.261719 135.089844 136.53125 133.714844 C 135.792969 132.324219 134.550781 131.277344 133.054688 130.792969 C 131.453125 130.21875 129.457031 129.9375 127.070312 129.933594 Z M 100.277344 129.933594 L 96.734375 165.539062 L 103.226562 165.539062 L 104.84375 149.320312 L 111.464844 149.320312 L 111.878906 144.796875 L 105.261719 144.796875 L 106.289062 134.417969 L 114.40625 134.417969 L 114.847656 129.9375 Z M 92.109375 109.359375 L 223.730469 109.359375 C 228.691406 109.359375 232.484375 112.886719 232.972656 117.574219 L 232.972656 118.699219 L 220.363281 245.410156 L 210.5 245.410156 L 210.195312 245.441406 L 152.640625 245.441406 L 152.945312 243.425781 C 154.46875 228.242188 142.960938 215.917969 127.265625 215.917969 C 111.574219 215.917969 97.636719 228.230469 96.121094 243.425781 L 96.027344 245.441406 L 78.542969 245.441406 C 72.875 245.441406 68.738281 240.835938 69.304688 235.152344 L 69.933594 228.800781 L 49.890625 228.800781 C 48.632812 228.828125 47.503906 228.027344 47.117188 226.828125 L 46.992188 225.570312 L 47.367188 224.3125 C 47.980469 223.121094 49.199219 222.363281 50.539062 222.335938 L 70.582031 222.335938 L 71.328125 214.789062 L 40.398438 214.789062 C 39.140625 214.816406 38.011719 214.015625 37.625 212.8125 L 37.5 211.554688 L 37.875 210.296875 C 38.488281 209.105469 39.707031 208.347656 41.046875 208.324219 L 71.972656 208.324219 L 72.726562 200.769531 L 54.773438 200.769531 C 53.523438 200.792969 52.394531 199.992188 52 198.792969 L 51.875 197.535156 L 52.257812 196.277344 C 52.871094 195.089844 54.082031 194.332031 55.421875 194.304688 L 73.363281 194.304688 L 80.796875 119.652344 C 81.363281 113.972656 86.417969 109.367188 92.078125 109.367188 Z M 92.109375 109.359375 " fill-opacity="1" fill-rule="evenodd"/></g><g fill="#ffffff" fill-opacity="1"><g transform="translate(204.192985, 186.244907)"><g><path d="M 1.40625 0.046875 C 1.207031 0.046875 1.050781 -0.00390625 0.9375 -0.109375 C 0.820312 -0.222656 0.765625 -0.375 0.765625 -0.5625 C 0.765625 -0.738281 0.820312 -0.882812 0.9375 -1 C 1.050781 -1.125 1.207031 -1.1875 1.40625 -1.1875 C 1.601562 -1.1875 1.757812 -1.128906 1.875 -1.015625 C 1.988281 -0.898438 2.046875 -0.75 2.046875 -0.5625 C 2.046875 -0.382812 1.988281 -0.238281 1.875 -0.125 C 1.757812 -0.0078125 1.601562 0.046875 1.40625 0.046875 Z M 1.40625 0.046875 "/></g></g></g><g fill="#000000" fill-opacity="1"><g transform="translate(139.304614, 346.691151)"><g><path d="M 2.34375 0.09375 C 2.007812 0.09375 1.742188 0 1.546875 -0.1875 C 1.359375 -0.375 1.265625 -0.625 1.265625 -0.9375 C 1.265625 -1.238281 1.359375 -1.484375 1.546875 -1.671875 C 1.742188 -1.867188 2.007812 -1.96875 2.34375 -1.96875 C 2.675781 -1.96875 2.9375 -1.875 3.125 -1.6875 C 3.320312 -1.5 3.421875 -1.253906 3.421875 -0.953125 C 3.421875 -0.640625 3.320312 -0.382812 3.125 -0.1875 C 2.9375 0 2.675781 0.09375 2.34375 0.09375 Z M 2.34375 0.09375 "/></g></g></g></svg>